Coordinates
version=1
nRows=21
nColumns=12
inDegrees=yes

Units are S.I. units (second, meters, Newtons, ...)
Angles are in degrees

endheader
time	SC_y	SC_z	SC_x	AC_y	AC_z	AC_x	GH_y	GH_z	GH_yy	EL_x	PS_y
       0.0              -27.76          9.936          55.04          45.09         -3.567          6.335          78.13          86.22          7.072          93.77          116.8
   0.03327              -27.76           9.94          55.04          45.09         -3.567          6.334          78.11          86.22           7.05          93.76          116.8
   0.06655              -27.76          9.945          55.03          45.09         -3.567          6.333           78.1          86.21          7.026          93.75          116.8
   0.09982              -27.77           9.95          55.03          45.09         -3.568          6.332          78.09           86.2          7.001          93.74          116.8
    0.1331              -27.77          9.955          55.03          45.09         -3.568          6.331          78.08          86.19          6.974          93.73          116.8
    0.1664              -27.78          9.961          55.03          45.09         -3.568           6.33          78.06          86.19          6.946          93.72          116.8
    0.1996              -27.78          9.967          55.03          45.09         -3.568          6.329          78.05          86.18          6.915          93.71          116.8
    0.2329              -27.79          9.973          55.03          45.09         -3.569          6.328          78.03          86.17          6.883           93.7          116.8
    0.2662              -27.79           9.98          55.02          45.09         -3.569          6.327          78.01          86.16          6.848          93.69          116.8
    0.2995               -27.8          9.987          55.02          45.09         -3.569          6.326          77.99          86.15           6.81          93.68          116.8
    0.3327              -27.81          9.995          55.02          45.09          -3.57          6.324          77.97          86.13           6.77          93.66          116.8
     0.366              -27.81           10.0          55.02          45.09          -3.57          6.323          77.95          86.12          6.727          93.65          116.8
    0.3993              -27.82          10.01          55.02          45.09          -3.57          6.321          77.93          86.11           6.68          93.63          116.8
    0.4326              -27.83          10.02          55.01          45.09         -3.571           6.32           77.9          86.09           6.63          93.62          116.8
    0.4658              -27.84          10.03          55.01          45.09         -3.571          6.318          77.88          86.08          6.576           93.6          116.8
    0.4991              -27.85          10.04          55.01          45.09         -3.572          6.316          77.85          86.06          6.516          93.58          116.8
    0.5324              -27.86          10.06           55.0          45.09         -3.572          6.314          77.81          86.04          6.452          93.55          116.8
    0.5656              -27.87          10.07           55.0          45.09         -3.573          6.311          77.78          86.02          6.382          93.53          116.8
    0.5989              -27.88          10.09          54.99          45.09         -3.573          6.309          77.74           86.0          6.306           93.5          116.8
    0.6322              -27.89           10.1          54.99          45.09         -3.574          6.306           77.7          85.98          6.222          93.48          116.8
    0.6655              -27.91          10.12          54.98           45.1         -3.575          6.303          77.65          85.95           6.13          93.44          116.8
